P3
80 53
255
220 235 255
220 235 255
220 235 255
220 235 255
220 235 255
220 235 255
220 235 255
220 235 255
220 235 255
220 235 255
220 235 255
220 235 255
220 235 255
220 235 255
220 235 255
220 235 255
220 235 255
220 235 255
220 235 255
220 235 255
220 235 255
220 235 255
220 235 255
220 235 255
220 235 255
220 235 255
220 235 255
220 235 255
220 235 255
220 235 255
220 235 255
220 235 255
220 235 255
220 235 255
220 235 255
220 235 255
220 235 255
220 235 255
220 235 255
220 235 255
220 235 255
220 235 255
220 235 255
220 235 255
220 235 255
220 235 255
220 235 255
220 235 255
220 235 255
220 235 255
220 235 255
220 235 255
220 235 255
220 235 255
220 235 255
220 235 255
220 235 255
220 235 255
220 235 255
220 235 255
220 235 255
220 235 255
220 235 255
220 235 255
220 235 255
220 235 255
220 235 255
220 235 255
220 235 255
220 235 255
220 235 255
220 235 255
220 235 255
220 235 255
220 235 255
220 235 255
220 235 255
220 235 255
220 235 255
220 235 255
221 235 255
221 235 255
221 235 255
221 235 255
221 235 255
220 235 255
220 235 255
221 235 255
220 235 255
220 235 255
221 235 255
221 235 255
221 235 255
220 235 255
221 235 255
220 235 255
221 235 255
221 235 255
221 235 255
221 235 255
220 235 255
220 235 255
220 235 255
220 235 255
221 235 255
221 235 255
221 235 255
221 235 255
220 235 255
220 235 255
220 235 255
220 235 255
220 235 255
220 235 255
220 235 255
220 235 255
221 235 255
220 235 255
221 235 255
220 235 255
220 235 255
220 235 255
220 235 255
221 235 255
220 235 255
221 235 255
220 235 255
220 235 255
221 235 255
220 235 255
221 235 255
220 235 255
220 235 255
220 235 255
220 235 255
221 235 255
221 235 255
220 235 255
220 235 255
220 235 255
221 235 255
220 235 255
220 235 255
220 235 255
220 235 255
220 235 255
220 235 255
221 235 255
221 235 255
221 235 255
221 235 255
220 235 255
220 235 255
221 235 255
220 235 255
220 235 255
220 235 255
221 235 255
221 235 255
221 235 255
221 235 255
221 235 255
221 235 255
221 235 255
221 235 255
221 235 255
221 235 255
221 235 255
221 235 255
221 235 255
221 235 255
221 235 255
221 235 255
221 235 255
221 235 255
221 235 255
221 235 255
221 235 255
221 235 255
221 235 255
221 235 255
221 235 255
221 235 255
221 235 255
221 235 255
221 235 255
221 235 255
221 235 255
221 235 255
221 235 255
221 235 255
221 235 255
221 235 255
221 235 255
221 235 255
221 235 255
221 235 255
221 235 255
221 235 255
221 235 255
221 235 255
221 235 255
221 235 255
221 235 255
221 235 255
221 235 255
221 235 255
221 235 255
221 235 255
221 235 255
221 235 255
221 235 255
221 235 255
221 235 255
221 235 255
221 235 255
221 235 255
221 235 255
221 235 255
221 235 255
221 235 255
221 235 255
221 235 255
221 235 255
221 235 255
221 235 255
221 235 255
221 235 255
221 235 255
221 235 255
221 235 255
221 235 255
221 235 255
221 235 255
221 235 255
221 235 255
221 235 255
221 235 255
221 235 255
221 235 255
221 235 255
221 235 255
221 235 255
221 235 255
221 235 255
221 235 255
221 235 255
221 235 255
221 235 255
221 235 255
221 235 255
221 235 255
221 235 255
221 235 255
221 235 255
221 235 255
221 235 255
221 235 255
221 235 255
221 235 255
221 235 255
221 235 255
221 235 255
221 235 255
221 235 255
221 235 255
221 235 255
221 235 255
221 235 255
221 235 255
221 235 255
221 235 255
221 235 255
221 235 255
221 235 255
221 235 255
221 235 255
221 235 255
221 235 255
221 235 255
221 235 255
221 235 255
221 235 255
221 235 255
221 235 255
221 235 255
221 235 255
221 235 255
221 235 255
221 235 255
221 235 255
221 235 255
221 235 255
221 235 255
221 235 255
221 235 255
221 235 255
221 235 255
221 235 255
221 235 255
221 235 255
221 235 255
221 235 255
221 235 255
221 235 255
221 235 255
221 235 255
221 235 255
221 235 255
221 235 255
221 235 255
221 235 255
221 235 255
221 235 255
221 235 255
221 235 255
221 235 255
221 235 255
221 235 255
221 235 255
221 236 255
221 236 255
221 236 255
221 236 255
221 236 255
221 236 255
221 236 255
221 236 255
221 236 255
221 236 255
221 236 255
221 236 255
221 236 255
221 236 255
221 236 255
221 236 255
221 236 255
221 236 255
221 236 255
221 236 255
221 236 255
221 236 255
221 236 255
221 236 255
221 236 255
221 236 255
221 236 255
221 236 255
221 236 255
221 236 255
188 193 204
136 120 111
169 167 173
158 153 155
221 236 255
221 236 255
221 236 255
221 236 255
200 219 236
149 185 183
189 214 229
189 204 225
221 236 255
221 236 255
221 236 255
221 236 255
221 236 255
221 236 255
221 236 255
221 236 255
221 236 255
221 236 255
206 215 228
179 179 181
178 179 181
179 179 181
218 231 249
221 236 255
221 236 255
221 236 255
221 236 255
221 236 255
221 236 255
221 236 255
221 236 255
221 236 255
221 236 255
221 236 255
221 236 255
221 236 255
221 236 255
221 236 255
221 236 255
221 236 255
221 236 255
221 236 255
221 236 255
221 236 255
221 236 255
221 236 255
221 236 255
221 236 255
221 236 255
221 236 255
221 236 255
221 236 255
221 236 255
221 236 255
221 236 255
221 236 255
221 236 255
222 236 255
221 236 255
221 236 255
222 236 255
222 236 255
221 236 255
221 236 255
221 236 255
221 236 255
222 236 255
221 236 255
221 236 255
221 236 255
221 236 255
221 236 255
221 236 255
213 226 244
119 97 80
128 101 80
124 99 80
121 97 78
126 100 80
122 96 76
110 87 71
155 169 191
135 176 174
95 152 133
126 148 168
116 143 157
128 150 172
143 168 190
139 157 184
147 161 182
152 168 190
221 236 255
221 236 255
221 236 255
203 210 221
173 176 181
168 174 181
166 173 181
164 172 181
163 171 181
163 171 181
163 171 181
165 172 181
166 173 181
169 174 181
174 177 181
221 236 255
221 236 255
221 236 255
221 236 255
221 236 255
222 236 255
221 236 255
221 236 255
221 236 255
221 236 255
221 236 255
222 236 255
221 236 255
221 236 255
221 236 255
221 236 255
221 236 255
221 236 255
221 236 255
221 236 255
222 236 255
222 236 255
222 236 255
222 236 255
222 236 255
222 236 255
222 236 255
222 236 255
222 236 255
222 236 255
222 236 255
222 236 255
222 236 255
222 236 255
222 236 255
222 236 255
222 236 255
222 236 255
222 236 255
222 236 255
222 236 255
222 236 255
222 236 255
222 236 255
222 236 255
222 236 255
181 181 189
122 97 78
125 99 79
118 96 78
126 100 80
127 100 80
123 97 78
161 166 179
145 164 189
135 157 182
138 156 181
129 149 172
122 140 163
120 135 155
115 135 146
122 139 162
127 144 169
118 133 153
153 176 206
108 122 148
182 181 181
171 175 181
166 173 181
163 171 181
160 170 181
158 169 181
157 168 181
157 168 181
156 168 181
157 168 181
158 169 181
159 169 181
161 170 181
164 172 181
167 173 181
173 176 181
222 236 255
222 236 255
222 236 255
222 236 255
222 236 255
222 236 255
222 236 255
222 236 255
222 236 255
222 236 255
222 236 255
222 236 255
222 236 255
222 236 255
222 236 255
222 236 255
222 236 255
222 236 255
222 236 255
222 236 255
222 236 255
222 236 255
222 236 255
222 236 255
222 236 255
222 236 255
222 236 255
222 236 255
222 236 255
222 236 255
222 236 255
222 236 255
222 236 255
222 236 255
222 236 255
222 236 255
222 236 255
222 236 255
222 236 255
222 236 255
222 236 255
222 236 255
222 236 255
166 155 155
129 101 80
111 87 69
118 93 74
119 94 76
109 85 68
124 99 80
175 192 214
142 163 189
122 139 162
138 155 177
121 138 152
111 128 148
127 143 163
64 75 77
81 90 101
98 111 130
135 151 172
141 162 189
129 147 171
174 177 181
168 174 181
164 172 181
161 170 181
158 169 181
156 168 181
155 167 181
154 167 181
153 166 181
153 166 181
153 166 181
154 167 181
155 167 181
157 168 181
159 169 181
161 170 181
165 172 181
169 174 181
177 178 181
222 236 255
222 236 255
222 236 255
222 236 255
222 236 255
222 236 255
222 236 255
222 236 255
222 236 255
222 236 255
222 236 255
222 236 255
222 236 255
222 236 255
222 236 255
222 236 255
222 236 255
222 236 255
222 236 255
222 236 255
222 236 255
222 236 255
222 236 255
222 236 255
222 236 255
222 236 255
222 236 255
222 236 255
222 236 255
222 236 255
222 236 255
222 236 255
222 236 255
222 236 255
222 236 255
222 236 255
222 236 255
222 236 255
222 236 255
222 236 255
207 216 231
98 83 66
107 84 67
123 97 78
106 83 68
113 89 72
125 98 78
172 188 210
116 130 145
141 162 189
116 135 146
123 143 162
125 142 162
89 93 87
94 94 76
94 94 77
89 99 93
96 101 102
124 140 163
123 140 161
173 176 181
167 173 181
163 171 181
160 170 181
157 168 181
155 168 181
154 167 181
153 166 181
152 166 181
151 166 181
151 166 181
152 166 181
152 166 181
153 166 181
154 167 181
156 168 181
158 169 181
161 170 181
164 172 181
169 174 181
175 177 181
222 236 255
222 236 255
222 236 255
222 236 255
222 236 255
222 236 255
222 236 255
222 236 255
222 236 255
222 236 255
222 236 255
222 236 255
222 236 255
222 236 255
222 236 255
222 236 255
222 236 255
222 236 255
222 236 255
222 236 255
222 236 255
222 236 255
222 236 255
222 236 255
222 236 255
222 236 255
222 236 255
222 236 255
222 236 255
222 236 255
222 236 255
222 236 255
222 236 255
222 236 255
222 236 255
222 236 255
222 236 255
222 236 255
222 236 255
113 89 72
112 92 75
111 89 72
116 93 74
123 97 78
121 96 78
147 135 133
122 135 147
128 146 168
121 145 170
113 134 157
116 134 154
122 141 164
101 109 107
105 111 109
99 103 94
86 87 73
129 149 169
110 123 140
174 177 181
168 174 181
164 172 181
161 170 181
158 169 181
156 168 181
155 167 181
153 166 181
152 166 181
151 166 181
151 165 181
151 165 181
151 166 181
152 166 181
152 166 181
154 167 181
155 167 181
157 168 181
159 169 181
162 171 181
165 172 181
170 174 181
176 178 181
222 236 255
222 236 255
222 236 255
222 236 255
222 236 255
222 236 255
222 236 255
222 236 255
222 236 255
222 236 255
222 236 255
222 236 255
222 236 255
222 236 255
223 236 255
223 236 255
223 236 255
223 236 255
223 236 255
223 236 255
223 236 255
223 236 255
223 236 255
223 236 255
223 236 255
223 236 255
223 236 255
223 236 255
223 236 255
223 236 255
223 236 255
223 236 255
223 236 255
223 236 255
223 236 255
223 236 255
223 236 255
223 236 255
112 89 73
110 88 65
122 94 74
115 89 71
116 92 72
114 87 70
166 183 206
159 172 187
134 152 174
32 128 150
119 140 164
130 146 167
172 191 218
110 129 116
196 212 236
113 128 142
90 95 104
86 107 114
176 178 181
170 175 181
166 173 181
163 171 181
160 170 181
158 169 181
156 168 181
155 167 181
154 167 181
153 166 181
152 166 181
152 166 181
152 166 181
152 166 181
152 166 181
153 166 181
154 167 181
155 167 181
157 168 181
159 169 181
161 170 181
164 172 181
167 173 181
171 175 181
178 179 181
223 236 255
223 236 255
223 236 255
223 236 255
223 236 255
223 236 255
223 236 255
223 236 255
223 236 255
223 236 255
223 236 255
223 236 255
223 236 255
223 236 255
223 236 255
223 236 255
223 236 255
223 236 255
223 236 255
223 236 255
223 236 255
223 236 255
223 236 255
223 236 255
223 236 255
223 236 255
223 236 255
223 236 255
223 237 255
223 237 255
223 237 255
223 236 255
223 237 255
223 236 255
223 236 255
223 236 255
190 200 215
113 90 71
104 83 68
111 88 71
105 82 63
114 90 72
129 124 128
152 171 190
130 144 163
107 143 160
35 140 164
134 154 181
129 158 171
100 123 129
129 147 172
121 134 151
117 146 157
94 107 118
179 179 181
173 176 181
168 174 181
165 172 181
163 171 181
161 170 181
159 169 181
157 168 181
156 168 181
155 167 181
154 167 181
154 167 181
153 167 181
153 167 181
153 167 181
154 167 181
154 167 181
155 167 181
156 168 181
158 169 181
159 169 181
161 170 181
164 171 181
166 173 181
170 174 181
174 177 181
182 181 181
223 236 255
223 236 255
223 237 255
223 236 255
223 236 255
223 236 255
223 236 255
223 236 255
223 236 255
223 236 255
223 236 255
223 236 255
157 174 198
177 192 214
182 195 214
179 194 214
157 174 198
176 192 214
176 192 214
149 166 189
184 200 221
171 186 206
170 185 206
149 167 189
177 193 214
157 174 198
156 174 198
154 169 189
143 159 181
167 183 206
160 176 198
157 174 198
175 192 214
159 175 198
139 157 181
162 166 178
121 94 74
107 84 68
104 82 69
101 80 65
89 68 54
140 160 166
122 141 160
138 157 181
56 143 169
48 76 101
135 153 178
132 148 175
156 171 192
151 172 198
87 111 131
63 99 117
128 128 128
176 178 181
172 175 181
168 174 181
166 173 181
164 171 181
162 171 181
160 170 181
159 169 181
158 169 181
157 168 181
156 168 181
156 168 181
156 168 181
155 168 181
156 168 181
156 168 181
156 168 181
157 168 181
158 169 181
159 169 181
161 170 181
162 171 181
164 172 181
167 173 181
169 174 181
173 176 181
178 178 181
140 157 181
158 175 198
176 192 214
184 200 221
159 176 198
169 185 206
176 192 214
134 155 181
185 200 221
185 200 221
143 159 181
193 208 228
139 157 181
139 157 181
134 154 181
138 156 181
139 157 181
135 155 181
136 155 181
137 156 181
136 155 181
140 158 181
135 155 181
139 157 181
138 156 181
129 147 171
140 157 181
135 155 181
136 155 181
139 157 181
138 156 181
137 156 181
140 157 181
137 156 181
131 149 171
119 123 134
105 85 69
116 92 74
117 92 73
101 80 64
110 88 70
121 126 175
138 158 183
133 138 156
121 138 163
6 57 113
120 133 155
113 130 147
132 155 173
132 149 175
67 122 145
65 104 126
180 180 181
175 177 181
172 176 181
169 174 181
167 173 181
165 172 181
164 171 181
162 171 181
161 170 181
160 170 181
159 169 181
159 169 181
158 169 181
158 169 181
158 169 181
158 169 181
159 169 181
159 169 181
160 170 181
160 170 181
161 170 181
163 171 181
164 172 181
166 172 181
168 173 181
170 175 181
173 176 181
176 178 181
182 181 181
136 155 181
140 158 181
134 155 181
137 156 181
132 156 173
139 157 181
138 156 181
139 157 181
147 150 203
138 156 181
137 156 181
136 155 181
127 147 172
133 154 181
136 154 172
145 156 144
139 157 181
137 156 181
138 157 181
132 149 171
135 155 181
142 158 181
137 156 181
140 158 181
136 155 181
135 155 181
135 155 181
134 154 181
131 141 163
129 140 163
134 155 181
140 157 181
134 154 181
137 158 183
132 142 161
104 83 68
112 88 70
98 77 62
123 96 76
98 75 58
132 136 170
109 118 141
117 163 167
134 147 179
132 149 173
123 107 182
119 120 165
109 106 115
70 131 85
30 9 21
106 115 122
179 179 181
175 177 181
173 176 181
171 175 181
169 174 181
167 173 181
166 173 181
165 172 181
164 172 181
163 171 181
162 171 181
162 171 181
161 170 181
161 170 181
161 170 181
161 170 181
162 170 181
162 171 181
162 171 181
163 171 181
164 172 181
165 172 181
166 173 181
168 173 181
169 174 181
171 175 181
173 176 181
176 178 181
180 180 181
131 148 171
136 153 176
134 156 176
135 175 204
145 205 238
131 152 172
130 148 171
166 151 225
70 56 76
106 116 138
133 150 171
143 174 147
140 168 147
137 156 181
137 151 115
135 136 46
122 136 151
132 145 168
126 142 163
151 167 189
133 150 171
47 37 116
66 63 134
137 156 181
139 157 181
160 169 216
173 181 226
141 152 178
136 81 122
73 36 35
133 142 163
128 147 171
78 119 158
132 161 191
66 114 147
88 71 53
103 81 65
111 87 70
89 68 56
99 79 60
176 175 204
156 169 205
118 140 162
133 169 200
65 188 121
144 174 135
8 115 82
95 96 138
82 50 110
88 100 92
183 181 181
179 179 181
176 178 181
174 177 181
173 176 181
171 175 181
170 175 181
169 174 181
168 173 181
167 173 181
166 173 181
166 172 181
165 172 181
165 172 181
165 172 181
165 172 181
165 172 181
165 172 181
165 172 181
165 172 181
166 173 181
167 173 181
168 174 181
169 174 181
170 175 181
171 175 181
173 176 181
175 177 181
177 178 181
180 180 181
186 183 181
131 149 171
64 152 124
31 165 79
35 185 90
150 182 213
139 166 198
121 130 158
51 42 55
107 57 155
121 56 180
112 133 118
114 138 118
33 138 217
24 103 171
97 131 147
113 130 130
106 95 101
118 111 123
146 165 189
104 131 137
76 111 104
50 40 124
137 156 181
143 151 183
168 171 208
75 82 29
95 81 72
143 89 137
88 107 85
93 139 121
138 156 181
79 121 158
68 116 130
119 37 15
106 82 65
95 69 55
81 63 51
77 65 54
90 70 54
213 228 249
220 235 255
221 235 255
204 223 240
221 235 255
221 236 255
217 230 249
222 236 255
222 236 255
212 224 246
183 181 181
180 180 181
178 179 181
176 178 181
175 177 181
174 176 181
172 176 181
172 175 181
171 175 181
170 175 181
169 174 181
169 174 181
169 174 181
168 174 181
168 174 181
168 174 181
168 174 181
168 174 181
169 174 181
169 174 181
169 174 181
170 175 181
171 175 181
172 175 181
173 176 181
174 177 181
175 177 181
177 178 181
178 179 181
181 180 181
184 182 181
181 200 222
139 177 183
155 176 203
33 125 62
186 42 40
171 74 88
112 141 171
90 96 118
103 48 149
84 66 117
96 116 114
154 180 209
143 176 224
152 179 217
98 117 112
118 178 155
122 201 171
117 176 159
135 155 181
89 137 101
87 134 97
90 138 102
135 155 181
130 144 168
69 74 25
71 79 26
62 66 23
110 69 98
27 124 46
113 76 207
95 62 166
117 102 181
58 91 74
114 59 51
85 84 36
85 67 55
110 85 67
73 58 46
78 63 52
206 221 243
207 222 242
219 234 255
209 223 248
219 234 255
220 235 255
219 234 255
220 235 255
215 229 249
198 210 229
184 182 181
182 181 181
180 180 181
179 179 181
177 178 181
176 178 181
175 177 181
175 177 181
174 177 181
173 176 181
173 176 181
172 176 181
172 176 181
172 176 181
172 176 181
172 176 181
172 176 181
172 176 181
172 176 181
172 176 181
173 176 181
173 176 181
174 177 181
175 177 181
175 177 181
176 178 181
177 178 181
179 179 181
180 180 181
182 181 181
185 182 181
119 146 156
70 92 109
93 110 136
177 125 152
142 106 113
167 39 38
137 127 153
122 145 164
93 88 132
80 73 118
191 217 220
125 143 171
135 158 187
88 115 129
97 97 80
103 153 123
92 147 120
72 71 5
71 68 6
69 104 72
72 111 82
137 153 218
163 172 241
132 150 175
93 104 116
52 58 41
17 32 83
19 38 100
43 106 76
102 67 178
86 56 159
91 58 156
135 140 158
122 70 62
111 62 56
89 107 64
66 38 38
83 62 48
88 61 52
193 209 222
204 220 242
216 233 255
216 233 255
216 233 255
217 233 255
216 233 255
211 227 249
207 223 243
194 202 214
185 182 181
183 182 181
182 181 181
181 180 181
180 180 181
179 179 181
179 179 181
178 179 181
177 178 181
177 178 181
177 178 181
176 178 181
176 178 181
176 178 181
176 177 181
176 177 181
176 177 181
176 177 181
176 178 181
176 178 181
176 178 181
177 178 181
177 178 181
178 179 181
178 179 181
179 179 181
180 180 181
181 180 181
182 181 181
184 182 181
185 183 181
74 103 113
21 35 90
19 31 82
107 146 158
118 160 165
122 167 176
126 148 172
131 128 149
105 115 136
128 148 172
103 119 123
114 134 164
88 105 132
96 77 50
80 86 37
66 97 6
67 98 40
57 56 4
62 61 5
59 58 4
122 128 204
132 149 232
42 110 187
43 116 198
113 135 145
17 33 89
17 34 91
15 28 75
16 31 78
71 96 99
150 165 76
128 145 83
135 79 69
145 85 75
113 66 58
83 91 105
129 60 161
134 62 166
87 38 100
128 134 144
205 224 249
213 231 255
207 225 249
214 232 255
214 231 255
197 208 230
215 232 255
208 225 249
141 139 148
83 83 85
185 183 181
185 182 181
184 182 181
183 181 181
182 181 181
182 181 181
181 180 181
181 180 181
181 180 181
180 180 181
180 180 181
180 180 181
179 179 181
179 179 181
179 179 181
179 179 181
179 179 181
180 180 181
180 180 181
180 180 181
180 180 181
181 180 181
181 180 181
182 181 181
182 181 181
183 181 181
183 182 181
184 182 181
185 182 181
117 122 128
95 99 123
16 28 108
16 30 127
102 148 157
120 129 72
115 149 140
109 62 71
120 68 73
132 76 80
128 134 155
117 135 146
135 155 181
109 125 150
87 69 45
56 86 5
59 88 5
60 90 6
53 76 5
161 179 173
171 201 206
172 193 197
34 95 155
39 104 176
37 100 157
66 102 140
87 101 129
14 27 70
16 31 82
88 105 128
100 121 102
151 165 61
113 144 102
147 158 72
89 44 37
96 64 68
131 134 168
121 57 155
111 51 134
113 54 147
27 21 18
197 209 239
209 229 255
204 223 249
204 222 248
205 224 249
202 220 243
213 231 255
213 231 255
127 131 129
73 84 56
126 114 105
111 119 124
162 161 161
186 183 181
185 183 181
185 182 181
185 182 181
184 182 181
184 182 181
184 182 181
184 182 181
183 182 181
183 181 181
183 181 181
183 181 181
183 181 181
183 181 181
183 181 181
183 181 181
184 182 181
184 182 181
184 182 181
184 182 181
185 182 181
185 182 181
186 183 181
186 183 181
116 121 128
80 85 105
37 101 18
61 71 111
14 25 112
16 29 124
93 99 60
118 126 53
109 113 47
113 113 55
118 67 72
130 74 80
18 53 82
125 144 182
40 77 190
40 77 190
95 103 114
54 80 5
59 88 5
52 75 4
60 78 65
188 210 206
184 208 206
162 170 168
108 44 38
63 75 119
31 84 145
84 121 173
127 144 171
99 112 133
116 131 154
98 111 131
129 142 58
47 105 122
44 100 117
48 109 126
83 115 132
112 123 140
93 102 115
100 46 121
89 39 111
107 48 134
83 89 101
123 136 157
181 162 194
207 227 255
208 228 255
209 229 255
209 229 255
194 213 238
210 229 255
157 161 166
96 99 104
66 68 89
113 139 178
100 104 102
39 100 69
93 97 113
103 103 129
129 160 132
74 144 55
49 89 74
111 119 128
116 121 128
115 121 128
115 121 128
116 121 128
117 122 128
108 114 121
115 121 128
117 122 128
114 120 128
116 121 128
112 119 128
115 121 128
116 121 128
119 99 87
61 48 86
50 80 86
26 93 79
109 84 83
133 73 34
64 63 85
140 199 254
143 201 254
54 72 125
74 81 45
74 80 36
82 84 36
101 106 43
93 54 60
32 50 75
13 49 77
37 71 175
36 70 168
32 61 151
34 63 153
103 121 128
33 51 3
90 105 114
110 123 133
115 131 133
151 175 202
141 169 202
150 174 202
94 39 33
32 51 90
120 135 156
93 106 127
113 127 143
114 133 152
92 103 118
94 106 116
47 103 119
45 103 119
50 113 130
46 105 121
114 122 150
172 92 141
176 41 110
181 43 115
100 112 128
74 75 84
62 63 74
165 186 214
192 213 242
204 226 255
199 220 249
206 227 255
200 221 249
207 228 255
207 228 255
59 62 32
61 143 50
104 109 119
107 110 119
71 70 70
48 75 17
71 68 82
11 55 91
107 114 121
102 108 113
107 43 62
109 116 124
78 85 103
111 116 121
23 11 31
131 139 169
104 98 105
97 114 94
95 34 84
81 89 90
102 108 115
87 23 46
119 124 111
112 117 121
98 103 113
92 61 58
119 131 130
111 115 123
134 172 156
106 109 114
80 110 74
139 188 227
147 191 241
128 163 185
69 72 30
99 92 86
140 100 169
146 105 178
146 104 173
11 43 66
11 42 72
37 70 170
27 55 124
32 63 151
62 120 55
65 127 58
65 128 59
65 126 58
117 136 157
136 151 176
158 179 202
157 178 202
146 164 186
119 122 157
69 40 197
69 39 187
136 156 181
113 131 153
136 155 181
137 156 181
131 150 172
43 98 117
40 90 104
43 96 109
114 137 155
190 205 230
197 210 233
163 38 101
175 41 111
167 39 107
118 130 153
103 114 128
56 55 65
170 192 221
187 211 242
190 212 241
190 213 242
189 218 242
203 225 255
198 220 249
104 109 114
54 103 51
25 18 83
96 101 108
87 108 102
109 115 121
99 107 114
108 114 118
51 39 75
86 95 101
54 45 43
84 87 105
120 144 179
107 116 122
27 80 64
97 111 118
80 85 89
98 103 107
71 92 101
51 86 95
106 113 111
110 117 123
62 75 23
113 118 124
31 78 47
75 101 88
74 80 81
97 78 44
53 97 29
109 119 121
91 89 97
132 150 171
89 122 150
97 136 171
109 127 151
129 92 154
120 88 137
128 93 152
146 103 169
126 97 150
9 35 54
32 61 147
77 43 89
75 43 88
77 44 90
58 114 52
56 106 50
56 107 49
135 152 174
95 110 128
63 78 77
99 117 136
103 117 149
69 39 186
66 38 181
70 39 186
66 38 177
136 155 177
142 159 181
124 140 163
130 146 168
82 91 102
46 63 73
85 101 111
182 192 222
159 67 115
156 107 142
194 207 230
133 32 84
153 35 95
130 148 175
123 140 164
103 119 143
46 67 74
145 164 190
183 207 239
164 208 207
155 202 207
154 202 207
132 182 186
71 45 53
109 119 121
75 82 86
92 97 106
39 50 43
108 116 123
105 113 121
97 104 110
101 71 13
91 94 102
104 109 114
103 109 117
77 85 99
112 119 127
114 120 128
113 120 128
115 121 128
64 56 30
84 67 28
100 108 116
108 115 122
112 118 124
101 109 115
109 109 108
106 89 70
113 120 128
107 113 121
101 108 111
75 80 103
103 112 110
120 109 86
121 134 154
118 138 162
142 156 172
151 134 56
165 145 59
115 81 135
107 79 128
124 91 146
108 108 141
130 148 171
102 101 211
64 38 76
64 37 78
57 32 72
68 37 77
52 98 45
50 99 46
128 147 172
136 155 181
87 101 118
79 90 102
64 50 159
65 36 169
57 32 157
70 80 45
73 81 45
65 75 43
86 99 91
126 140 162
118 135 156
140 150 173
139 157 181
127 54 97
156 66 114
150 65 106
165 66 116
164 69 115
127 27 77
115 54 88
132 148 172
138 156 181
124 136 157
136 151 172
122 140 163
111 126 146
91 121 126
100 133 139
51 92 71
34 117 57
99 112 104
44 26 21
117 122 128
111 116 122
140 165 154
126 140 124
106 110 114
102 105 109
103 71 13
92 62 11
110 118 127
111 117 124
114 119 124
98 103 109
101 105 110
109 115 121
111 117 124
109 113 118
81 81 81
109 114 121
87 21 96
93 23 100
94 95 96
85 84 84
80 79 83
106 111 118
113 120 128
39 36 69
92 99 100
104 111 116
120 85 61
26 59 8
74 87 47
115 100 40
145 129 53
151 134 55
144 134 53
73 49 87
113 94 129
137 156 181
131 148 174
85 88 187
84 86 178
65 58 124
69 38 79
57 32 67
57 108 48
65 102 69
131 148 168
111 130 146
113 127 146
106 125 134
128 145 168
46 28 124
60 58 103
66 75 41
65 73 40
51 56 32
63 73 41
133 140 160
139 153 172
125 140 163
136 156 181
142 60 102
159 68 112
111 49 83
158 66 112
153 64 109
99 95 110
111 121 139
127 132 155
126 144 167
124 123 146
110 121 143
134 147 173
121 142 167
103 129 138
98 134 134
34 118 58
30 104 50
31 109 52
106 111 118
38 23 18
112 118 124
74 81 76
96 106 94
107 114 120
111 116 119
93 95 99
99 103 107
103 109 114
110 115 122
114 120 128
130 78 46
122 72 41
106 113 121
100 107 115
109 115 121
106 113 121
82 19 84
90 21 94
70 17 72
107 112 119
93 96 103
104 106 111
115 121 128
98 101 108
69 71 77
107 112 120
101 108 117
107 55 14
74 99 59
118 105 42
120 111 46
151 133 53
127 111 46
125 109 45
109 115 141
119 133 154
132 143 171
124 140 166
78 106 88
87 87 183
97 98 199
45 26 55
51 29 61
86 107 109
120 139 158
130 150 172
118 133 154
121 158 161
74 186 70
73 188 72
112 127 148
65 73 41
61 69 37
63 71 39
59 66 37
50 58 33
120 133 158
127 138 169
131 148 172
114 130 157
125 53 93
119 51 88
128 53 91
132 55 91
131 55 93
139 156 179
127 145 166
130 149 172
130 149 171
120 137 158
84 127 73
81 119 66
77 117 67
73 110 63
96 116 130
25 86 43
33 112 54
31 107 53
49 67 34
27 16 13
82 85 89
103 110 117
71 77 71
91 95 93
99 105 108
106 111 118
114 120 128
111 118 124
106 113 119
104 64 36
118 68 38
130 76 43
114 69 39
100 105 110
100 103 110
101 105 110
75 74 78
56 40 58
102 100 107
100 98 103
89 92 95
112 118 124
104 110 116
107 110 114
107 112 118
108 112 118
102 52 13
128 19 40
140 21 47
125 106 42
111 92 36
125 108 43
97 86 36
124 107 43
127 141 168
138 156 181
124 143 163
106 110 173
79 109 91
72 107 80
82 82 175
23 11 29
119 132 152
105 120 144
107 121 148
128 147 172
75 190 70
77 192 72
75 189 70
71 177 67
69 170 64
96 109 117
49 56 32
54 56 33
52 58 33
53 58 33
137 156 181
123 139 163
135 155 181
126 134 159
130 146 168
105 43 72
128 53 91
122 49 83
127 132 153
133 152 176
131 151 174
137 156 181
132 142 164
136 156 181
73 110 61
71 107 61
70 102 56
66 97 55
67 98 58
139 157 181
20 76 36
30 102 49
74 118 104
100 106 109
102 106 110
103 108 112
102 104 108
102 106 109
101 104 105
102 103 103
114 120 128
104 110 116
100 102 105
77 72 71
90 52 28
101 59 34
86 85 86
90 84 83
90 86 88
107 110 114
99 104 109
90 92 98
112 116 121
96 99 104
109 114 119
105 109 114
98 100 103
102 105 112
105 111 117
97 13 26
107 15 32
140 21 46
125 18 40
118 18 39
146 22 48
106 88 35
95 81 35
133 138 142
133 152 176
133 150 172
135 155 176
89 96 154
62 56 142
66 57 147
128 147 171
122 139 163
129 147 172
135 155 181
132 148 172
134 150 172
63 162 62
68 171 64
29 24 120
26 21 106
30 24 120
29 22 108
68 76 82
40 47 25
37 42 23
105 121 140
116 133 152
112 125 141
120 138 162
117 122 144
121 124 145
104 108 123
102 91 109
108 112 131
137 151 172
126 144 166
59 38 34
52 34 31
55 35 31
47 31 27
44 25 24
68 104 59
55 83 45
59 84 49
48 70 39
93 113 123
62 77 82
48 58 58
65 102 94
53 89 75
88 89 90
95 96 99
100 104 109
86 89 89
95 97 102
90 91 92
101 106 112
104 108 112
101 104 109
100 98 98
90 83 79
107 108 111
98 97 99
97 102 107
81 76 79
97 97 103
109 106 109
99 100 107
110 111 115
117 120 124
107 109 117
100 103 108
91 87 88
104 108 115
101 105 110
104 15 32
111 14 30
100 14 31
122 18 39
126 19 40
123 19 41
112 126 140
88 94 100
100 103 101
118 131 146
130 149 174
131 149 171
108 119 190
67 59 148
63 56 141
48 44 117
132 150 179
127 143 173
113 129 157
135 155 181
123 141 166
61 154 57
29 23 115
29 23 114
31 24 120
30 24 121
29 23 115
26 21 105
101 114 128
112 131 152
125 143 167
132 153 181
123 139 167
137 156 181
121 138 157
119 137 154
128 145 167
114 130 152
134 152 176
121 139 167
55 34 30
53 34 31
56 36 33
54 35 31
52 34 30
40 23 21
45 72 39
59 88 50
34 50 26
49 74 41
107 129 141
114 137 152
128 147 171
107 128 144
68 100 88
82 91 89
105 111 114
83 87 91
100 105 111
102 106 110
97 98 101
92 94 96
85 86 89
103 107 112
102 105 107
106 110 116
98 100 99
108 112 116
105 108 113
89 86 88
80 79 85
100 97 95
109 114 119
108 111 114
94 96 101
98 101 104
106 107 109
82 78 74
99 105 108
114 124 140
103 14 29
92 13 27
103 15 29
112 17 35
125 19 40
139 20 42
117 131 152
124 140 165
138 154 176
125 145 171
131 147 170
128 146 167
125 141 164
59 53 129
68 59 146
62 55 138
128 147 171
136 156 181
136 155 181
114 137 149
129 147 173
34 88 35
29 23 112
109 148 156
114 151 156
109 149 156
25 19 95
22 18 89
120 139 157
122 139 163
132 150 174
126 144 166
116 132 151
139 155 176
136 153 176
136 155 181
134 154 181
139 157 181
122 137 157
137 156 181
43 29 26
180 215 209
172 216 219
172 216 219
171 203 197
39 24 21
48 71 40
44 67 39
50 72 40
113 131 147
91 111 123
122 137 156
108 123 134
84 98 109
90 103 117
65 83 90
95 99 103
84 87 89
98 100 102
100 102 104
100 104 109
106 106 108
82 80 81
96 97 98
93 90 88
92 96 100
97 100 103
91 93 98
89 90 89
94 91 91
96 96 98
96 97 99
76 77 79
86 84 84
98 97 102
96 98 102
97 97 97
92 97 99
138 154 176
134 150 171
133 152 176
93 13 27
94 13 29
86 12 26
128 19 41
79 12 27
121 139 165
118 134 157
130 147 171
130 149 174
101 111 130
112 126 152
116 130 153
61 53 134
52 47 122
48 43 113
100 116 134
131 148 171
116 142 152
116 143 154
115 133 151
140 157 181
113 151 156
110 147 152
100 136 144
100 132 136
103 139 146
22 17 86
124 144 162
124 144 158
127 149 171
132 149 171
141 158 181
117 136 156
128 145 167
135 155 181
137 156 181
135 155 181
132 149 171
124 142 165
189 226 219
171 215 219
165 212 219
164 211 219
147 173 162
126 151 139
62 76 70
86 93 98
82 96 103
88 106 118
98 113 125
116 131 153
135 148 166
116 131 148
111 118 141
111 126 142
106 114 134
117 131 151
96 99 100
79 77 75
90 90 90
89 91 91
89 91 91
90 93 95
95 95 96
90 88 88
86 87 92
86 85 87
97 95 94
93 95 99
105 107 109
95 97 102
101 101 103
109 109 111
94 95 98
105 106 112
101 102 103
105 118 140
121 128 147
110 122 140
105 110 125
128 144 167
76 10 23
100 14 31
79 10 21
127 137 157
132 150 174
134 147 172
134 152 176
129 147 171
134 149 171
138 156 181
126 139 162
43 38 99
46 40 104
129 148 172
123 144 163
134 154 181
125 143 161
119 141 164
105 125 139
104 139 144
83 110 111
106 142 145
90 122 117
108 142 140
91 121 124
91 118 121
124 143 162
130 150 162
129 148 172
124 144 162
138 156 181
123 141 161
133 152 176
132 149 171
128 147 167
129 150 172
128 148 172
131 149 172
189 226 219
181 221 219
178 219 219
176 218 219
182 222 219
80 91 82
119 133 151
110 127 143
128 144 166
107 115 129
123 140 162
112 123 140
125 144 165
114 129 147
122 135 151
138 154 176
113 123 137
99 107 117
62 59 66
70 69 71
77 73 73
73 69 67
62 57 56
157 102 64
157 102 65
161 105 66
95 94 94
53 42 45
74 71 70
89 90 91
94 95 97
101 102 105
94 95 97
92 90 91
80 82 82
126 138 156
125 141 161
131 147 169
110 118 136
116 115 129
86 93 104
118 125 138
85 65 79
118 122 140
106 119 140
108 118 132
129 147 167
124 134 157
129 142 159
124 141 166
131 149 171
134 154 181
130 148 171
36 32 81
111 124 145
107 121 146
108 122 141
107 122 146
131 148 173
130 148 174
105 120 147
86 114 117
95 126 127
95 126 130
103 133 138
90 121 126
97 126 127
95 128 128
102 116 138
111 126 152
137 154 176
123 137 159
134 154 181
128 147 172
125 142 164
127 141 158
122 134 151
107 121 142
129 147 171
116 131 151
67 98 85
111 141 116
139 163 161
139 108 22
137 107 22
138 107 22
142 110 22
106 118 127
122 138 156
100 114 131
137 156 181
103 108 126
118 132 149
118 133 152
123 138 158
109 123 136
109 119 134
121 130 143
105 110 120
103 110 118
72 77 85
77 76 73
157 96 58
154 100 63
166 106 66
159 104 66
152 99 63
72 68 65
58 56 56
67 64 62
82 81 80
89 83 81
71 69 67
112 124 137
121 131 144
124 136 150
108 116 128
107 119 135
103 104 115
118 130 148
111 30 146
111 29 142
111 29 139
105 28 138
112 78 142
123 133 148
130 146 166
132 151 176
132 149 171
124 139 159
127 144 167
135 151 174
133 150 174
107 121 147
113 137 107
112 140 83
117 143 83
117 143 83
107 131 77
133 151 176
119 138 164
82 102 102
87 116 121
88 119 123
75 102 102
90 119 121
93 125 131
63 82 80
130 146 166
123 141 159
96 111 132
129 147 171
133 154 181
135 153 176
116 132 149
120 136 158
120 138 162
125 144 169
124 137 155
128 145 166
114 143 142
117 146 147
125 98 20
133 102 20
121 93 20
145 111 22
133 102 21
141 105 21
128 142 161
134 151 174
119 131 146
114 127 146
95 104 117
120 134 154
122 135 150
106 117 126
98 109 124
98 107 117
77 81 85
96 103 112
63 64 68
156 99 61
130 86 56
138 88 56
157 99 61
156 100 62
139 88 57
132 85 54
37 32 26
39 38 31
58 62 66
39 31 27
89 94 102
70 70 70
113 123 137
102 110 122
129 140 159
118 130 146
130 146 165
111 29 140
104 28 136
111 28 135
109 29 142
107 28 131
101 27 129
119 108 145
121 135 156
126 140 159
134 150 171
125 141 161
113 127 152
127 146 171
127 140 160
95 118 86
112 138 81
111 138 81
116 142 83
96 116 67
108 130 75
96 119 69
115 131 153
131 149 170
76 106 103
64 89 89
77 103 107
80 107 110
75 99 102
124 141 161
127 142 161
131 151 176
126 144 167
100 109 140
65 55 115
68 56 115
67 55 115
66 55 115
106 124 140
125 143 165
131 149 171
102 124 137
153 171 180
113 116 92
123 97 20
137 105 21
133 101 20
133 101 20
138 106 21
139 106 21
140 105 21
125 140 157
118 133 151
107 121 134
119 133 151
109 117 131
112 127 144
131 145 164
99 107 116
112 119 130
102 114 126
88 94 103
65 67 69
142 89 55
144 93 57
150 95 59
163 104 65
155 98 61
135 87 54
139 90 53
73 74 77
83 90 96
98 101 111
64 66 68
102 111 123
91 96 103
100 108 119
112 123 137
110 119 131
115 121 138
124 138 156
88 22 109
107 28 135
116 30 142
109 29 138
114 30 142
101 27 126
104 28 138
123 138 158
129 143 163
120 137 159
119 138 156
136 155 181
128 147 171
127 144 167
110 130 76
102 131 73
112 138 81
110 131 74
109 133 76
104 125 72
85 104 62
106 132 129
126 139 157
100 114 127
61 71 76
47 66 63
54 63 67
116 130 146
84 101 112
106 125 141
119 137 158
92 97 131
66 54 112
65 53 109
60 48 100
62 52 107
58 47 101
64 52 106
134 155 178
132 151 175
116 131 149
106 123 136
114 87 17
119 92 19
129 99 20
127 99 21
111 86 18
130 98 19
117 92 19
124 95 19
129 146 169
125 136 156
131 144 161
123 134 148
115 129 144
132 147 166
126 136 151
120 132 148
112 123 138
135 153 175
120 128 143
99 110 116
127 84 52
136 86 53
151 96 60
128 88 55
123 80 50
122 80 51
129 83 52
105 109 117
123 134 150
117 127 142
87 96 107
93 102 114
127 140 156
119 133 151
122 133 154
108 118 133
129 143 161
128 132 159
101 52 111
125 109 49
123 108 49
123 108 49
100 90 40
99 26 122
86 22 108
119 135 157
122 126 139
138 152 171
130 149 174
137 156 181
141 158 181
134 149 174
102 124 69
91 116 67
104 127 72
103 125 73
107 129 72
85 107 60
101 122 69
107 127 88
97 116 131
88 106 118
98 116 133
90 106 116
109 125 143
139 157 181
119 136 154
129 148 170
131 148 171
64 53 109
64 52 106
60 50 104
66 54 109
64 53 109
65 53 109
58 49 103
80 86 117
128 147 169
128 145 161
128 148 163
118 135 152
103 77 15
133 102 19
97 74 15
111 87 18
115 87 18
126 107 82
142 168 212
152 178 220
123 144 166
127 142 161
125 138 155
131 145 167
118 126 138
124 141 159
118 131 148
127 139 155
127 139 157
116 131 150
108 115 128
112 71 45
113 69 42
132 85 53
99 66 42
116 73 45
100 65 43
102 62 40
106 116 134
132 146 167
101 111 126
110 118 133
129 143 162
119 134 154
114 126 146
130 142 159
97 106 123
128 140 157
130 132 126
117 103 47
114 100 45
106 96 44
108 98 45
119 107 49
124 109 49
93 24 113
123 136 154
125 141 162
125 140 160
124 140 162
123 142 164
113 124 140
133 146 164
89 110 64
88 107 61
102 124 70
82 99 57
114 138 78
98 120 69
67 80 49
114 131 134
134 152 175
128 147 171
129 148 172
133 150 170
135 151 171
125 141 158
139 157 181
132 150 173
116 134 155
53 46 90
60 49 99
63 51 106
60 50 103
58 48 98
60 50 103
63 52 106
59 47 96
139 157 181
122 136 153
131 148 169
134 150 171
98 76 16
97 74 15
105 79 16
90 67 13
167 195 241
145 187 253
138 183 253
135 181 253
138 183 253
128 159 206
119 130 146
128 142 162
121 131 146
123 139 159
104 112 125
117 128 143
118 127 140
118 131 147
111 118 132
102 99 100
102 63 39
105 63 40
116 72 45
125 78 48
100 61 39
117 126 141
114 127 140
118 129 146
120 128 141
120 137 159
128 136 152
87 98 111
122 128 138
129 145 166
112 122 135
120 133 151
123 107 48
124 107 48
87 81 37
110 93 42
119 103 47
105 94 42
97 86 38
101 90 38
127 145 174
129 141 162
106 122 145
61 111 134
58 107 131
62 111 134
56 102 124
75 95 56
88 107 62
83 97 52
93 113 64
70 86 51
66 77 46
85 101 57
133 152 172
134 152 176
112 129 151
131 151 175
129 148 172
135 155 181
127 143 162
138 157 181
135 155 178
125 141 169
59 49 99
54 43 92
55 45 100
57 46 93
59 49 102
55 47 94
57 47 99
77 80 116
123 137 156
126 141 162
116 131 155
130 143 161
112 120 131
92 71 14
89 67 13
102 95 102
148 189 253
140 184 253
136 182 253
135 181 253
139 184 253
146 188 253
121 146 185
124 133 146
129 140 156
123 141 159
124 140 161
121 137 158
129 148 172
91 91 101
97 102 116
111 113 123
92 91 100
63 56 58
63 55 58
86 89 99
79 72 72
113 120 135
114 116 133
115 127 147
122 133 152
118 122 137
139 152 172
125 137 160
131 148 168
109 117 139
116 125 141
115 123 145
105 90 40
97 88 42
127 110 49
124 107 49
106 96 44
102 90 41
99 90 41
75 70 32
128 142 167
107 129 152
59 107 131
60 106 125
56 104 126
61 111 134
59 105 129
128 143 162
85 103 77
72 88 53
79 98 50
73 135 50
50 143 35
67 152 82
120 153 157
113 130 155
127 142 162
128 90 107
131 109 129
130 107 129
118 123 140
132 149 171
129 148 171
136 155 181
43 36 69
55 45 92
54 43 90
48 40 81
37 32 78
52 43 87
53 44 92
118 134 156
129 147 173
126 141 162
130 146 163
116 132 152
82 81 85
88 85 81
63 60 57
131 163 215
150 190 253
146 187 253
143 186 253
144 186 253
143 186 253
150 190 253
144 179 234
111 127 152
124 143 167
121 135 151
129 142 162
124 138 158
120 133 156
120 132 152
132 140 160
129 146 171
127 135 152
114 123 141
121 133 152
132 148 172
125 135 152
124 140 160
108 123 143
129 146 169
116 127 143
128 141 157
116 129 149
112 120 138
136 151 171
121 129 149
121 135 160
123 136 161
104 89 40
113 95 41
104 88 40
116 100 45
106 91 42
104 90 40
76 70 31
89 80 37
118 131 155
52 94 113
62 110 131
53 95 119
59 105 127
56 97 116
48 87 107
93 107 116
93 107 116
70 93 85
24 156 19
24 157 18
24 156 19
23 153 18
23 148 18
77 126 69
135 59 82
137 60 82
136 59 82
129 56 78
137 60 82
130 98 117
136 156 181
121 132 154
123 140 162
39 30 69
50 41 85
35 33 65
45 40 81
49 40 81
70 75 104
100 111 133
117 132 152
126 146 172
112 124 141
126 146 173
135 151 171
112 124 140
121 141 163
90 118 162
114 133 179
129 150 214
138 173 242
153 192 253
131 178 226
133 169 222
116 142 180
98 107 131
129 143 162
132 149 171
139 157 181
131 146 162
128 147 171
132 146 167
133 152 176
137 156 181
119 137 161
136 155 181
123 136 157
124 140 162
130 146 167
129 139 157
122 137 157
127 139 162
133 150 172
126 141 163
124 143 166
124 137 159
124 138 161
127 144 167
131 151 176
134 150 171
107 93 42
101 88 39
113 100 45
92 81 37
108 95 42
96 85 38
94 86 39
71 64 29
94 115 133
53 96 117
60 106 127
45 87 104
59 106 128
55 101 121
62 111 134
117 140 153
116 131 147
24 155 18
23 149 18
22 143 17
22 146 17
22 142 17
25 160 19
110 85 66
128 57 73
137 60 82
142 61 82
131 57 78
134 58 80
133 58 79
137 125 149
123 140 162
100 112 133
91 105 120
81 89 107
31 25 53
24 20 42
60 64 76
105 117 135
105 115 132
119 132 155
123 140 162
129 148 171
134 154 181
127 142 161
135 153 176
133 152 176
81 105 144
81 92 124
51 64 128
109 141 184
112 141 188
101 137 178
97 127 172
87 121 165
125 141 161
114 128 148
116 132 153
134 152 176
123 140 161
131 150 174
133 154 181
130 149 174
129 146 167
134 152 176
134 149 172
138 156 181
128 142 163
134 147 167
135 155 181
131 147 167
121 140 164
125 140 162
140 157 181
131 149 174
119 133 152
138 156 181
136 155 181
116 131 151
122 136 157
106 116 132
80 68 32
94 80 35
96 84 37
99 86 38
72 67 31
60 55 24
116 135 155
111 135 160
49 89 104
61 109 131
56 100 120
60 106 127
52 96 109
59 104 124
134 154 181
77 146 100
21 136 17
21 140 17
22 145 17
21 132 16
22 140 16
21 137 17
128 57 75
124 53 74
134 58 80
141 61 82
121 53 74
124 54 73
110 48 64
108 47 67
126 140 162
101 113 135
111 123 146
93 102 126
114 124 146
109 122 141
89 100 119
127 148 166
124 147 166
128 147 173
129 147 171
112 128 154
139 157 181
120 133 153
128 142 161
122 137 157
98 120 159
87 115 167
101 131 179
81 114 160
96 126 174
95 121 166
91 121 170
101 131 179
129 147 171
133 151 176
127 139 157
101 164 168
68 174 168
89 179 176
103 170 172
125 153 171
137 156 181
130 147 171
138 157 178
130 148 171
126 143 166
132 149 172
136 155 181
135 153 176
130 148 171
130 147 173
132 149 173
132 149 171
128 143 162
129 147 171
123 139 159
109 121 135
118 131 155
110 118 128
94 100 108
67 57 25
92 81 37
83 72 32
76 66 29
111 126 146
104 115 129
107 118 135
57 99 117
54 97 117
52 94 111
41 74 91
52 96 114
50 91 110
136 155 181
22 142 17
21 130 16
20 135 16
21 138 16
19 124 15
21 141 17
19 122 15
119 50 71
134 57 78
119 52 74
120 52 71
117 50 72
130 57 78
121 52 73
120 52 78
130 132 156
124 140 163
97 106 187
43 45 213
43 45 224
43 46 224
42 44 217
124 136 183
136 155 181
115 133 154
123 144 178
125 145 171
136 155 181
129 147 171
130 149 174
125 144 172
123 140 162
93 122 170
92 122 169
76 105 149
78 106 154
84 113 162
90 120 169
116 134 156
121 143 168
99 160 165
72 188 174
61 188 169
61 190 174
60 189 174
58 181 165
58 182 166
106 176 177
132 151 176
134 154 181
128 147 172
131 149 171
138 156 181
128 143 162
130 146 166
119 133 151
137 154 176
128 153 176
137 156 181
129 151 171
106 119 144
121 135 152
115 131 151
101 113 129
89 99 111
99 107 116
85 92 103
41 48 48
83 90 99
70 80 89
91 104 116
96 110 123
101 116 133
74 102 118
42 72 91
49 88 106
44 79 96
50 90 109
43 79 93
127 149 171
22 144 17
23 146 17
22 138 17
22 141 16
21 135 16
16 101 12
37 136 24
125 54 73
113 49 70
118 51 71
127 55 76
134 58 80
103 46 62
118 51 75
124 54 73
123 140 163
90 103 201
44 46 224
42 45 224
44 46 224
38 40 194
43 46 224
45 47 224
89 102 201
111 126 151
133 151 174
125 143 167
118 134 157
130 151 180
134 149 174
110 126 151
119 138 164
120 138 165
97 116 145
76 102 146
75 96 132
63 79 112
106 128 159
108 126 153
130 160 180
57 181 165
61 187 169
59 183 171
58 183 165
56 177 160
60 187 173
55 171 157
54 169 152
129 159 180
127 145 170
126 145 168
129 144 167
137 156 181
135 150 172
133 149 171
132 153 180
122 140 162
129 147 171
135 155 181
137 156 181
125 143 166
123 140 162
113 125 141
112 125 140
117 131 145
122 140 162
117 132 151
108 123 140
67 95 111
24 81 97
23 80 97
23 80 97
24 81 97
65 97 114
56 86 104
40 74 90
38 71 84
36 67 79
40 73 87
136 155 181
58 133 71
19 123 15
21 137 16
12 78 11
22 143 17
18 119 14
18 115 13
108 46 63
109 46 67
116 49 67
113 49 69
121 52 73
91 38 54
88 38 57
93 40 59
112 130 181
42 44 217
35 38 183
40 43 208
44 46 224
41 43 211
43 45 218
46 47 224
44 46 224
92 103 183
128 148 176
128 141 163
128 146 171
127 142 164
141 158 181
107 121 145
119 138 166
115 131 154
95 112 139
104 118 139
82 96 116
109 124 146
113 131 158
114 133 162
103 162 169
59 183 165
59 181 155
55 170 153
57 174 155
62 186 165
58 179 160
51 158 144
59 185 169
67 162 152
137 156 181
132 150 174
134 154 181
135 154 180
137 156 181
134 152 176
131 149 171
132 150 173
132 153 181
128 141 165
130 148 171
122 141 164
137 156 181
125 141 162
129 146 167
116 131 151
126 142 162
122 140 163
62 97 116
23 79 95
23 80 96
22 76 92
21 74 90
23 80 97
23 80 97
23 79 95
51 70 81
52 67 76
22 43 52
66 81 95
116 134 153
130 152 171
17 113 13
19 123 15
20 130 15
19 127 15
21 130 16
18 111 13
89 36 54
106 45 65
114 49 66
103 44 61
110 47 64
76 32 49
107 45 65
119 112 135
39 40 195
43 45 214
41 43 206
45 47 224
41 43 212
37 39 188
43 44 212
37 40 190
42 44 212
83 93 201
114 135 155
132 148 172
132 151 176
120 140 166
137 156 180
125 144 171
121 139 163
125 146 176
119 137 169
130 151 180
101 128 156
128 148 176
130 150 176
132 152 180
51 157 142
43 134 128
50 155 152
61 188 169
55 173 162
55 170 155
49 154 144
56 168 156
54 168 155
54 170 158
128 148 176
132 149 171
111 127 146
132 150 174
127 146 173
129 148 173
128 147 171
129 148 171
128 152 176
134 154 181
133 154 181
131 151 179
140 157 181
132 150 174
129 144 164
125 142 163
136 155 181
77 101 117
21 71 84
21 73 89
23 80 97
23 81 94
18 62 82
22 75 91
21 72 88
22 74 89
22 73 87
112 126 143
110 125 143
65 82 96
115 137 153
127 143 167
103 128 135
18 113 13
15 102 12
20 128 15
19 120 14
14 89 10
59 45 37
75 34 45
94 40 55
74 31 49
85 35 52
87 38 48
101 91 107
121 139 183
39 40 201
37 40 189
38 39 187
40 42 194
36 38 191
42 44 212
37 38 183
39 40 194
43 44 216
37 42 188
115 131 152
124 142 174
129 148 173
125 147 172
137 156 181
127 147 171
138 156 180
134 154 180
139 157 181
131 152 180
135 155 181
126 142 169
130 148 171
135 151 171
49 150 135
47 143 133
48 151 136
50 155 146
63 194 174
43 139 136
51 158 140
55 172 156
53 162 145
53 167 152
134 151 171
124 141 164
138 157 181
128 145 166
136 155 181
141 158 181
132 153 175
134 148 174
137 151 188
149 163 197
147 162 203
122 139 162
114 133 157
120 138 162
132 153 181
132 149 171
122 141 164
23 80 96
18 67 78
23 79 94
23 78 94
23 78 92
19 67 83
22 74 90
22 75 89
20 69 82
20 70 81
115 136 154
122 141 164
121 140 163
120 143 161
135 155 181
87 115 114
80 117 99
13 85 10
50 78 59
50 86 59
84 94 100
80 90 99
78 83 83
75 55 68
80 57 68
86 75 88
116 126 147
105 119 139
89 89 143
41 42 202
42 43 206
40 42 200
40 42 200
39 40 194
40 41 200
38 41 200
40 41 194
37 39 187
34 36 170
132 149 175
132 148 172
138 156 181
129 147 172
124 146 166
133 152 176
115 133 157
139 157 181
135 154 180
133 154 181
116 135 163
138 156 181
135 155 181
136 155 181
83 142 150
52 161 153
56 172 155
53 166 155
56 169 150
57 177 163
44 137 129
59 182 155
50 160 143
66 164 157
137 154 176
136 153 176
137 154 176
139 157 181
134 151 174
135 160 186
152 167 209
159 177 225
159 181 240
158 181 240
161 182 240
170 187 240
158 173 217
131 149 171
132 153 181
137 154 176
103 121 138
17 62 73
21 73 89
21 74 88
20 70 86
21 72 87
21 67 83
23 77 89
22 77 92
20 70 84
20 70 84
108 129 150
110 127 146
130 151 173
99 120 130
107 131 140
87 118 114
82 97 108
89 108 121
51 71 67
79 96 99
83 96 100
88 92 101
75 79 85
72 76 83
103 113 137
91 89 104
69 71 83
113 126 145
122 136 165
34 34 182
41 42 201
35 36 173
33 35 168
35 37 183
37 39 187
31 34 156
32 34 164
38 39 187
71 78 183
123 146 170
138 157 181
129 149 176
129 148 178
130 148 171
132 153 180
136 155 181
129 147 171
123 142 164
131 151 173
131 145 167
136 155 181
138 156 181
136 155 181
103 143 155
46 146 134
43 137 132
49 158 142
52 162 151
50 154 140
48 155 135
42 135 125
37 119 108
55 128 121
136 154 173
127 144 164
123 146 166
134 155 181
122 143 161
164 178 222
169 186 240
161 182 240
155 179 240
153 178 240
154 179 240
159 181 240
173 188 240
154 170 207
131 149 172
136 155 181
127 148 174
22 75 89
19 69 82
20 70 85
18 64 71
21 71 85
18 64 75
21 71 84
20 68 82
19 69 81
24 81 95
79 97 110
129 149 171
135 152 173
129 152 171
115 137 152
121 143 161
116 140 151
104 128 140
77 97 100
99 117 128
95 121 128
98 111 128
86 100 114
117 135 151
93 90 103
127 141 162
87 90 109
101 111 128
109 120 141
68 77 179
33 34 179
38 39 188
36 37 180
35 37 177
33 35 173
37 38 188
26 30 152
25 27 137
98 111 162
128 147 175
137 156 181
138 155 179
134 155 181
131 147 172
128 147 173
128 147 178
125 145 172
131 154 176
123 152 171
110 129 150
131 148 178
125 148 173
124 144 167
134 153 180
81 126 133
43 136 139
51 158 141
40 128 117
43 134 122
47 145 132
36 119 108
61 141 132
131 149 174
124 144 165
133 150 172
127 149 173
131 149 172
111 134 150
174 189 240
166 185 240
161 182 240
155 179 240
155 179 240
157 180 240
161 182 240
166 185 240
167 182 229
96 116 137
134 154 181
122 140 163
86 106 126
19 65 78
18 63 77
16 55 70
19 67 81
16 55 67
21 72 87
19 64 75
22 77 91
19 67 77
124 143 165
136 150 174
133 150 171
